<?xml version="1.0" encoding="UTF-8" standalone="no"?>
<!DOCTYPE svg PUBLIC "-//W3C//DTD SVG 1.1//EN" "http://www.w3.org/Graphics/SVG/1.1/DTD/svg11.dtd">
<svg width="100%" height="100%" viewBox="0 0 231 43" version="1.1" xmlns="http://www.w3.org/2000/svg" xmlns:xlink="http://www.w3.org/1999/xlink" xml:space="preserve" xmlns:serif="http://www.serif.com/" style="fill-rule:evenodd;clip-rule:evenodd;stroke-linejoin:round;stroke-miterlimit:2;">
    <g transform="matrix(4.15999,0,0,4.15999,-582.399,-2343.43)">
        <g transform="matrix(0.0449441,0,0,0.0449441,140,563.326)">
            <path d="M106,0C116.5,0 126.2,0.8 135.1,3.2C144,4.8 151.3,8.1 157.8,12.1C164.3,16.1 169.1,21.8 172.4,29.1C175.6,36.4 177.3,45.3 177.3,55C177.3,66.3 174.9,76 169.2,83.3C164.3,90.6 156.3,97.1 146.5,101.9C160.3,105.9 170.8,113.2 177.2,122.9C183.6,132.6 187.7,144.7 187.7,158.5C187.7,169.8 185.3,179.5 181.2,187.6C177.2,195.7 170.7,203 163.4,207.8C156.1,212.7 147.2,216.7 137.5,219.1C127.8,221.5 118.1,223.1 108.4,223.1L0,223.3L0,0L106,0ZM99.5,90.6C108.4,90.6 115.7,88.2 121.3,84.1C126.9,80 129.4,72.8 129.4,63.9C129.4,59 128.6,54.2 127,51C125.4,47.8 123,45.3 119.7,42.9C116.5,41.3 113.2,39.7 109.2,38.9C105.2,38.1 101.1,38.1 96.3,38.1L49.4,38.1L49.4,90.7C49.4,90.6 99.5,90.6 99.5,90.6ZM101.9,186.1C106.8,186.1 111.6,185.3 115.7,184.5C119.7,183.7 123.8,182.1 127,179.6C130.2,177.1 132.7,174.7 135.1,170.7C136.7,166.7 138.3,161.8 138.3,156.1C138.3,144.8 135.1,136.7 128.6,131C122.1,126.1 113.2,123.7 102.7,123.7L49.4,123.7L49.4,186L101.9,186L101.9,186.1Z" style="fill:white;fill-rule:nonzero;"/>
        </g>
        <g transform="matrix(0.0449441,0,0,0.0449441,139.964,563.308)">
            <path d="M258.1,185.3C264.6,191.8 274.3,195 287.2,195C296.1,195 304.2,192.6 310.7,188.5C317.2,183.6 321.2,178.8 322.8,173.9L362.4,173.9C355.9,193.3 346.2,207.1 333.3,216C320.4,224.1 305,228.9 286.4,228.9C273.5,228.9 262.1,226.5 251.6,222.4C241.1,218.4 233,212.7 225.7,204.6C218.4,197.3 212.8,188.4 209.5,177.9C205.5,167.4 203.8,156.1 203.8,143.1C203.8,131 205.4,119.6 209.5,109.1C213.6,98.6 219.2,89.7 226.5,81.6C233.8,74.3 242.7,67.8 252.4,63.8C262.9,59.8 273.4,57.3 286.4,57.3C300.2,57.3 312.3,59.7 322.8,65.4C333.3,71.1 341.4,77.5 347.9,87.2C354.4,96.1 359.2,106.6 362.5,117.9C364.1,129.2 364.9,140.6 364.1,153.5L246.8,153.5C246.8,166.7 251.6,178.8 258.1,185.3ZM309.1,100.3C303.4,94.6 294.5,91.4 284,91.4C276.7,91.4 271.1,93 266.2,95.4C261.3,97.8 258.1,101.1 254.9,104.3C251.7,107.5 250,111.6 249.2,115.6C248.4,119.6 247.6,122.9 247.6,126.1L320.4,126.1C318.8,114.1 314.7,106 309.1,100.3ZM237.9,15.4L328.5,15.4L328.5,37.2L237.9,37.2L237.9,15.4Z" style="fill:white;fill-rule:nonzero;"/>
        </g>
        <g transform="matrix(0.0449441,0,0,0.0449441,139.969,563.326)">
            <path d="M427.2,0L427.2,84.1L428,84.1C433.7,74.4 440.9,67.9 449.8,63.9C458.7,59.9 466.8,57.4 475.7,57.4C487.8,57.4 497.5,59 504.8,62.3C512.1,65.5 518.6,70.4 522.6,76.1C526.6,81.8 529.9,89 531.5,97.1C533.1,105.2 533.9,114.1 533.9,124.6L533.9,224.1L489.4,224.1L489.4,132.7C489.4,118.9 487,109.2 482.9,102.8C478.8,96.4 471.7,93 461.2,93C449.1,93 440.2,97 435.3,103.5C429.6,110.8 427.2,122.9 427.2,139.1L427.2,224.1L382.7,224.1L382.7,0L427.2,0Z" style="fill:white;fill-rule:nonzero;"/>
        </g>
        <g transform="matrix(0.0449441,0,0,0.0449441,139.973,563.303)">
            <path d="M566.4,85.8C571.3,78.5 576.9,73.7 584.2,68.8C591.5,64.8 599.6,61.5 608.5,59.9C617.4,58.3 626.3,57.5 635.2,57.5C643.3,57.5 651.4,58.3 660.3,59.1C668.4,59.9 676.5,62.3 683,65.6C690.3,68.8 695.1,73.7 700,79.4C704,85.1 706.5,93.2 706.5,102.9L706.5,187.9C706.5,195.2 707.3,202.5 708.1,208.9C708.9,215.4 711.3,221 713.8,224.3L668.5,224.3C666.9,222.7 666.1,219.4 665.3,217C664.5,214.6 664.5,211.3 664.5,208.9C657.2,216.2 649.1,221 639.4,224.3C629.7,227.5 620,228.3 610.3,228.3C602.2,228.3 595.7,227.5 588.5,225.1C582,223.5 576.4,220.2 570.7,216.2C565.8,212.2 561.8,207.3 558.6,200.8C556.2,194.3 554.6,187.9 554.6,179C554.6,170.1 556.2,162 559.5,156.3C562.7,150.6 566.8,145.8 571.6,141.7C576.5,138.5 582.9,135.2 589.4,133.6C595.9,132 602.3,130.4 609.6,129.6C616.1,128.8 622.5,128 629,127.2C635.5,126.4 641.1,125.6 646,124.8C650.9,123.2 654.9,121.6 658.1,119.1C661.3,116.7 662.1,113.4 662.1,108.6C662.1,103.7 661.3,99.7 659.7,97.3C658.1,94.9 655.7,92.4 653.2,90.8C650.8,89.2 647.5,88.4 644.3,87.6C641.1,86.8 637,86.8 633,86.8C624.1,86.8 617.6,88.4 612.8,92.5C607.9,96.5 604.7,103 603.9,111.1L559.4,111.1C559.1,101.1 562.3,92.2 566.4,85.8ZM654.6,148.9C652.2,149.7 648.9,150.5 645.7,151.3C642.5,152.1 639.2,152.1 635.2,152.9C632,153.7 627.9,153.7 624.7,154.5C621.5,155.3 618.2,156.1 615,156.9C611.8,157.7 608.5,159.3 606.9,160.9C604.5,162.5 602.9,164.9 601.2,167.4C598.8,170.6 598.8,173.9 598.8,177.9C598.8,181.9 599.6,185.2 601.2,187.6C602.8,190 604.4,192.5 606.9,194.1C609.3,195.7 612.6,196.5 615.8,197.3C619,198.1 622.3,198.1 626.3,198.1C635.2,198.1 641.7,196.5 646.5,194.1C651.4,190.9 654.6,187.6 657,183.6C659.4,179.6 661,175.5 661,171.5C661.8,167.5 661.8,164.2 661.8,161.8L661.8,144.8C659.4,146.4 657,148.1 654.6,148.9Z" style="fill:white;fill-rule:nonzero;"/>
        </g>
        <g transform="matrix(0.0449441,0,0,0.0449441,139.973,563.303)">
            <path d="M773.5,61.5L773.5,84.2L774.3,84.2C780,74.5 787.2,68 796.1,64C805,60 814.7,57.5 823.6,57.5C835.7,57.5 845.4,59.1 852.7,62.4C860.8,65.6 866.5,70.5 870.5,76.2C874.5,81.9 877.8,89.1 880.2,97.2C881.8,105.3 882.6,114.2 882.6,124.7L882.6,224.2L838.1,224.2L838.1,132.8C838.1,119 835.7,109.3 831.6,102.9C827.6,96.4 820.3,92.4 808.9,92.4C796.8,92.4 787.9,97.3 782.2,104.5C776.5,111.8 774.1,123.9 774.1,140.1L774.1,225.1L729.6,225.1L729.6,61.5L773.5,61.5Z" style="fill:white;fill-rule:nonzero;"/>
        </g>
        <g transform="matrix(0.0449441,0,0,0.0449441,139.969,563.308)">
            <path d="M982.3,90.6C975,90.6 969.4,92.2 964.5,95.5C959.6,98.7 955.6,102.8 952.4,108.4C949.2,113.3 947.5,118.9 945.9,125.4C944.3,131.9 944.3,137.5 944.3,144C944.3,149.7 945.1,156.1 945.9,161.8C947.5,168.3 949.1,173.1 952.4,178C955.6,182.9 958.9,186.9 963.7,190.1C968.6,193.3 974.2,195 981.5,195C992,195 1000.1,191.8 1006.6,186.1C1012.3,180.4 1016.3,172.3 1017.1,161.8L1060,161.8C1056.8,183.6 1048.7,199.8 1034.9,211.2C1021.1,222.5 1003.3,228.2 981.5,228.2C969.4,228.2 958,225.8 948.3,221.7C937.8,217.7 929.7,212 922.4,204.7C915.1,197.4 909.5,188.5 905.4,178.8C901.4,168.3 899.7,157.8 899.7,145.6C899.7,132.7 901.3,121.3 905.4,110.8C909.4,100.3 914.3,90.6 921.6,82.5C928.9,74.4 937.8,68.7 947.5,63.9C958,59.9 969.3,57.4 982.3,57.4C992,57.4 1000.9,59 1009.8,61.4C1018.7,63.8 1026.8,67.9 1033.3,72.7C1040.6,77.6 1046.2,84 1050.3,92.1C1054.3,99.4 1056.8,109.1 1057.6,119.6L1013.9,119.6C1012.2,100.3 1001.7,90.6 982.3,90.6Z" style="fill:white;fill-rule:nonzero;"/>
        </g>
        <g transform="matrix(0.0449441,0,0,0.0449441,139.955,563.312)">
            <path d="M1127.1,185.3C1133.6,191.8 1144.1,195 1156.2,195C1165.1,195 1173.2,192.6 1179.7,188.5C1186.2,183.6 1190.2,178.8 1191.8,173.9L1230.6,173.9C1224.1,193.3 1214.4,207.1 1201.5,216C1188.6,224.1 1173.2,228.9 1154.6,228.9C1141.7,228.9 1130.3,226.5 1119.8,222.4C1109.3,218.4 1101.2,212.7 1093.9,204.6C1086.6,197.3 1081,188.4 1077.7,177.9C1073.7,167.4 1072,156.1 1072,143.1C1072,131 1073.6,119.6 1077.7,109.1C1081.7,98.6 1087.4,89.7 1094.7,81.6C1102,74.3 1110.9,67.8 1120.6,63.8C1131.1,59.8 1142.4,57.3 1154.6,57.3C1168.4,57.3 1180.5,59.7 1190.2,65.4C1200.7,71.1 1208.8,77.5 1215.3,87.2C1221.8,96.1 1226.6,106.6 1229.9,117.9C1233.1,129.2 1233.9,141.4 1233.1,154.3L1115.8,154.3C1115.8,166.7 1120.6,178.8 1127.1,185.3ZM1178.9,100.3C1173.2,94.6 1164.3,91.4 1153.8,91.4C1146.5,91.4 1140.9,93 1136,95.4C1131.1,97.8 1127.1,101.1 1124.7,104.3C1122.3,107.5 1119.8,111.6 1119,115.6C1118.2,119.6 1117.4,122.9 1117.4,126.1L1190.2,126.1C1187.8,114.1 1183.7,106 1178.9,100.3Z" style="fill:white;fill-rule:nonzero;"/>
        </g>
    </g>
</svg>
