<?xml version="1.0" encoding="UTF-8" standalone="no"?>
<!DOCTYPE svg PUBLIC "-//W3C//DTD SVG 1.1//EN" "http://www.w3.org/Graphics/SVG/1.1/DTD/svg11.dtd">
<svg width="100%" height="100%" viewBox="0 0 167 76" version="1.1" xmlns="http://www.w3.org/2000/svg" xmlns:xlink="http://www.w3.org/1999/xlink" xml:space="preserve" xmlns:serif="http://www.serif.com/" style="fill-rule:evenodd;clip-rule:evenodd;stroke-linejoin:round;stroke-miterlimit:2;">
    <g transform="matrix(0.0759266,0,0,0.0759266,0.000131141,5.52499e-05)">
        <path d="M2030.61,892.82C2020.84,892.82 2012.06,892.82 2004.24,891.84C1987.64,890.87 1971.04,889.89 1954.44,889.89C1943.7,889.89 1943.7,889.89 1942.72,879.15L1927.09,701.41L1911.47,553.95L1900.73,463.13L1890.96,384.03L1873.38,260.98C1867.52,217.04 1860.69,174.07 1851.9,130.12C1850.92,123.29 1850.92,122.31 1858.74,121.33C1889.01,115.47 1920.26,112.54 1951.51,112.54L1962.25,112.54C1967.13,113.52 1970.06,116.45 1971.04,122.31L1974.95,189.69L2002.29,553.95L2015.96,720.94L2024.75,816.65L2030.61,892.82ZM833.34,112.54L850.92,112.54C859.71,112.54 861.66,115.47 861.66,124.26L869.48,242.43L887.06,487.54L897.8,615.47L905.61,714.11L921.24,884.03C921.24,891.84 920.26,892.82 912.45,892.82L842.13,889.89C837.25,890.87 834.32,887.94 834.32,883.05L831.39,848.87C828.46,819.58 825.53,790.28 823.58,760.01L807.95,605.71L791.35,466.06L779.63,367.43L766.94,277.58C761.08,237.54 754.24,196.53 747.41,156.49L742.52,129.15C741.55,124.26 742.52,122.31 747.41,121.33C774.75,116.45 801.12,111.57 833.34,112.54ZM1815.77,506.1C1840.18,506.1 1843.11,507.08 1847.02,530.51C1851.9,559.81 1855.81,589.11 1858.74,618.4L1869.48,713.13L1889.99,914.3C1890.96,919.19 1889.99,921.14 1885.1,921.14L1808.93,929.93C1801.12,930.9 1799.16,929.93 1798.19,922.12L1754.24,697.51L1726.9,548.09L1722.99,527.58C1722.02,523.68 1723.97,520.75 1727.88,519.77C1758.15,512.94 1787.45,508.05 1815.77,506.1ZM705.41,506.1C731.78,505.12 734.71,508.05 737.64,532.47C744.48,572.51 749.36,611.57 753.27,651.61L765.96,768.79L773.77,847.9L780.61,911.37C780.61,920.16 779.63,922.12 771.82,923.09L699.56,929.93C691.74,930.9 689.79,929.93 688.81,922.12L629.24,615.47L613.62,528.56C612.64,523.68 614.59,520.75 619.48,519.77C649.75,512.94 678.07,508.05 705.41,506.1ZM1078.46,808.83L1078.46,933.83C1079.44,939.69 1076.51,942.62 1070.65,941.65L1047.21,941.65C1030.61,941.65 1014.01,942.62 997.41,943.6C988.62,944.58 987.64,944.58 986.66,933.83L971.04,758.05L963.23,671.14L951.51,538.33C950.53,527.58 952.49,525.63 961.27,524.65C988.62,521.72 1015.96,521.72 1043.31,522.7L1063.81,525.63C1071.63,528.56 1072.6,529.54 1072.6,537.35L1075.53,590.08L1076.51,648.68C1077.49,702.39 1078.46,755.12 1078.46,808.83ZM2186.86,814.69L2186.86,934.81C2186.86,939.69 2184.91,942.62 2180.02,941.65L2144.87,941.65C2131.2,941.65 2117.52,942.62 2104.83,943.6C2097.02,944.58 2096.04,943.6 2095.06,934.81L2074.56,706.29L2063.81,593.01L2059.91,535.4C2058.93,527.58 2060.88,525.63 2068.7,525.63C2100.92,521.72 2134.13,520.75 2166.35,524.65C2179.05,525.63 2181,529.54 2181.98,542.23L2184.91,672.11L2186.86,814.69ZM1787.45,298.09C1797.21,298.09 1806,299.07 1812.84,300.04C1817.72,301.02 1819.67,302.97 1820.65,307.86L1833.34,443.6C1836.27,455.32 1834.32,457.27 1822.6,457.27L1789.4,459.22C1782.56,460.2 1779.63,461.18 1779.63,450.44L1765.96,340.08L1762.06,308.83C1761.08,302.97 1763.03,300.04 1768.89,299.07L1787.45,298.09ZM681,298.09C688.81,298.09 696.63,299.07 703.46,300.04C707.37,301.02 709.32,302.97 710.3,307.86L714.2,342.04L723.97,448.48C724.95,456.29 724.95,457.27 717.13,457.27L679.05,459.22C671.24,460.2 670.26,459.22 669.28,451.41L660.49,373.29L652.68,307.86C651.7,302.97 653.66,300.04 658.54,300.04C665.38,299.07 673.19,298.09 681,298.09ZM1070.65,327.39L1070.65,463.13C1071.63,473.87 1069.67,473.87 1060.88,473.87C1048.19,473.87 1036.47,472.9 1024.75,471.92C1016.94,470.94 1015.96,470.94 1016.94,463.13L1014.01,380.12C1014.01,361.57 1014.01,343.01 1013.03,324.46C1012.06,315.67 1013.03,314.69 1021.82,314.69C1035.49,314.69 1049.16,315.67 1062.84,317.62C1070.65,317.62 1070.65,319.58 1070.65,327.39ZM2180.02,331.29L2180.02,464.11C2180.02,472.9 2179.05,473.87 2170.26,473.87L2133.15,471.92C2127.29,470.94 2124.36,468.01 2125.34,463.13L2122.41,323.48C2122.41,315.67 2123.38,314.69 2131.2,314.69C2143.89,314.69 2155.61,315.67 2167.33,316.65C2181.98,317.62 2180.02,320.55 2180.02,331.29ZM650.73,449.46C651.7,461.18 650.73,463.13 639.01,464.11L615.57,469.97C607.76,472.9 606.78,470.94 605.81,464.11L581.39,326.41C578.46,317.62 580.41,315.67 589.2,314.69L623.38,308.83C631.2,307.86 633.15,307.86 633.15,315.67C636.08,332.27 639.01,348.87 640.96,365.47L650.73,443.6L650.73,449.46ZM1689.79,315.67C1704.44,312.74 1720.06,310.79 1735.69,308.83C1740.57,307.86 1742.52,310.79 1743.5,315.67L1751.31,369.38C1755.22,395.75 1758.15,422.11 1759.13,448.48L1759.13,456.29C1760.1,460.2 1758.15,463.13 1754.24,464.11L1722.99,470.94C1718.11,471.92 1716.16,469.97 1715.18,465.08L1689.79,319.58L1689.79,315.67ZM996.43,421.14C996.43,436.76 995.45,451.41 994.48,465.08C994.48,469.97 992.52,471.92 987.64,472.9L957.37,475.83C952.49,476.8 950.53,473.87 950.53,468.99C948.58,454.34 947.6,440.67 946.63,426.02C944.67,399.65 942.72,372.31 941.74,344.97L939.79,325.44C938.81,321.53 940.77,319.58 944.67,319.58L984.71,316.65C991.55,316.65 993.5,317.62 993.5,325.44L996.43,421.14ZM2103.85,405.51C2104.83,424.07 2104.83,443.6 2103.85,462.15C2104.83,470.94 2102.88,472.9 2094.09,472.9L2066.74,475.83C2061.86,476.8 2058.93,473.87 2058.93,468.99C2057.95,444.58 2056,419.19 2054.05,394.77L2050.14,326.41C2049.16,321.53 2051.12,319.58 2055.02,319.58L2094.09,316.65C2100.92,316.65 2101.9,317.62 2101.9,325.44C2103.85,351.8 2104.83,379.15 2103.85,405.51ZM612.64,738.52C628.27,757.08 631.2,777.58 624.36,800.04C618.5,821.53 607.76,840.08 592.13,855.71C566.74,882.08 537.45,903.56 505.22,920.16C449.56,949.46 391.94,969.97 330.41,980.71C286.47,989.5 242.52,995.36 198.58,998.29C184.91,999.26 171.24,999.26 157.56,999.26L128.27,999.26C120.45,999.26 118.5,997.31 117.52,989.5L110.69,894.77L92.13,708.25L71.63,530.51L59.91,435.79L47.21,344.97C40.38,295.16 31.59,245.36 22.8,195.55C15.96,155.51 9.13,115.47 0.34,75.44C-0.64,70.55 0.34,66.65 5.22,65.67L140.96,9.03C149.75,5.12 157.56,2.19 166.35,0.24C172.21,-0.74 175.14,1.22 174.16,7.08C174.16,22.7 174.16,38.33 173.19,54.93L172.21,67.62C171.24,124.26 171.24,180.9 172.21,238.52C173.19,288.33 176.12,339.11 179.05,388.91C183.93,467.04 191.74,545.16 199.56,622.31C199.56,630.12 200.53,630.12 209.32,629.15C225.92,626.22 241.55,625.24 258.15,625.24C309.91,625.24 361.66,631.1 411.47,643.79C455.41,654.54 497.41,669.19 539.4,687.74C559.91,697.51 578.46,709.22 596.04,722.9C602.88,727.78 607.76,732.66 612.64,738.52ZM1713.23,729.73C1733.74,746.33 1740.57,768.79 1734.71,795.16C1729.83,816.65 1720.06,835.2 1705.41,851.8C1681.98,878.17 1654.63,898.68 1624.36,915.28C1565.77,947.51 1503.27,969.97 1436.86,981.69C1400.73,988.52 1364.59,994.38 1328.46,997.31C1307.95,999.26 1285.49,1000.24 1263.03,999.26L1236.66,999.26C1230.81,1000.24 1227.88,997.31 1227.88,991.45C1225.92,964.11 1223.97,936.76 1221.04,909.42L1205.41,742.43L1188.81,596.92L1168.31,432.86C1165.38,404.54 1161.47,375.24 1156.59,346.92L1139.01,237.54C1131.2,185.79 1121.43,134.03 1110.69,82.27L1109.71,75.44C1107.76,70.55 1109.71,66.65 1114.59,65.67C1162.45,46.14 1209.32,24.65 1257.17,6.1C1269.87,1.22 1285.49,-4.64 1284.52,7.08C1280.61,43.21 1281.59,79.34 1280.61,114.5C1279.63,143.79 1279.63,173.09 1281.59,201.41L1281.59,223.87C1281.59,259.03 1282.56,294.19 1285.49,328.36C1287.45,374.26 1290.38,421.14 1294.28,467.04L1303.07,565.67C1304.05,584.22 1306,601.8 1308.93,620.36C1308.93,631.1 1310.88,630.12 1319.67,629.15C1337.25,626.22 1354.83,625.24 1372.41,625.24C1433.93,626.22 1493.5,635.98 1552.09,652.58C1592.13,663.33 1630.22,677.97 1667.33,697.51C1683.93,706.29 1698.58,717.04 1713.23,729.73ZM301.12,901.61C315.77,892.82 341.16,875.24 376.31,847.9C411.47,819.58 432.95,801.02 441.74,791.26C389.01,767.82 334.32,747.31 277.68,728.76L301.12,901.61ZM1548.19,796.14C1551.12,793.21 1550.14,791.26 1547.21,789.3L1523.77,779.54C1482.76,761.96 1441.74,746.33 1399.75,732.66L1393.89,730.71C1391.94,729.73 1389.99,730.71 1387.06,731.69L1410.49,900.63C1413.42,900.63 1415.38,899.65 1416.35,898.68C1454.44,871.33 1492.52,843.01 1530.61,812.74L1548.19,796.14Z" style="fill:white;fill-rule:nonzero;"/>
    </g>
</svg>
