<?xml version="1.0" encoding="UTF-8" standalone="no"?>
<!DOCTYPE svg PUBLIC "-//W3C//DTD SVG 1.1//EN" "http://www.w3.org/Graphics/SVG/1.1/DTD/svg11.dtd">
<svg width="100%" height="100%" viewBox="0 0 76 76" version="1.1" xmlns="http://www.w3.org/2000/svg" xmlns:xlink="http://www.w3.org/1999/xlink" xml:space="preserve" xmlns:serif="http://www.serif.com/" style="fill-rule:evenodd;clip-rule:evenodd;stroke-linejoin:round;stroke-miterlimit:2;">
    <g transform="matrix(0.612703,0,0,0.612703,-390.923,-298.249)">
        <path d="M700,594.744L679.957,606.769L671.606,610.081L662.859,610.567L654.398,608.297L646.904,603.343L641.39,596.251L638.478,587.989L638.292,579.231L640.953,570.651L675.239,502.078L679.613,495.73L685.446,490.91L692.366,487.848L700,486.775L707.634,487.848L714.554,490.91L720.387,495.73L724.761,502.078L759.047,570.651L761.708,579.231L761.522,587.989L758.61,596.251L753.096,603.343L745.602,608.297L737.141,610.567L728.394,610.081L720.043,606.769L700,594.744ZM705.783,511.567C704.688,509.376 702.449,507.993 700,507.993C697.551,507.993 695.312,509.376 694.217,511.567L659.93,580.139C658.645,582.711 659.211,585.822 661.32,587.775C663.43,589.729 666.575,590.055 669.041,588.576L696.673,571.996C698.721,570.767 701.279,570.767 703.327,571.996L730.959,588.576C733.425,590.055 736.57,589.729 738.68,587.775C740.789,585.822 741.355,582.711 740.07,580.139L705.783,511.567Z"/>
    </g>
</svg>
