<?xml version="1.0" encoding="UTF-8" standalone="no"?>
<!DOCTYPE svg PUBLIC "-//W3C//DTD SVG 1.1//EN" "http://www.w3.org/Graphics/SVG/1.1/DTD/svg11.dtd">
<svg width="100%" height="100%" viewBox="0 0 364 239" version="1.1" xmlns="http://www.w3.org/2000/svg" xmlns:xlink="http://www.w3.org/1999/xlink" xml:space="preserve" xmlns:serif="http://www.serif.com/" style="fill-rule:evenodd;clip-rule:evenodd;stroke-linejoin:round;stroke-miterlimit:2;">
    <g transform="matrix(1,0,0,1,-691.794,-295.503)">
        <g transform="matrix(1,0,0,1,429.299,-278.685)">
            <g transform="matrix(1,0,0,1,-583.569,276.081)">
                <path d="M848,534C845.502,528.185 857.183,532.05 860,523L867,492C868.112,484.399 881.844,436.564 874.652,437.642L875.652,433.642C883.178,433.394 888.534,432.438 892.478,429.642L896.652,429.642C895.202,434.435 884.704,482.354 886,480C891.426,470.147 930.848,464.078 927,484L921,524C920.566,527.54 918.333,530.07 928,530L926,534L892,534L895,530C903.754,527.672 905.245,525.052 906,520L910,496C913.613,473.343 888.774,475.102 882,494L877,520C875.898,526.988 879.128,527.973 884,530L882,534L848,534Z" style="fill:rgb(210,175,183);"/>
            </g>
            <g transform="matrix(1.14286,0,0,1.09058,-818.031,233.537)">
                <g>
                    <path d="M1048.5,470.821C1068.14,467.121 1083.78,479.309 1080,497.577C1077.56,509.387 1075.35,521.515 1055.5,528.753C1040.77,534.123 1014.54,527.972 1020.5,497.577C1023.37,482.948 1036.74,473.037 1048.5,470.821ZM1057.21,474.461C1045.6,472.361 1040.37,483.967 1036.48,496.257C1033.26,506.42 1030.81,524.673 1044.37,525.81C1056.33,526.813 1060.9,512.999 1064.22,501.785C1067.74,489.889 1065.87,476.026 1057.21,474.461Z" style="fill:rgb(210,175,183);"/>
                </g>
            </g>
            <g transform="matrix(-1,0,0,-1,1347,1282.9)">
                <path d="M855,534C855,534 857.183,532.05 860,523L867,492C868.112,484.399 866.192,478.922 859,480L860,476C867.526,475.752 874.056,474.797 878,472L885,472C883.55,476.793 884.704,482.354 886,480C891.426,470.147 930.848,464.078 927,484L921,524C920.566,527.54 918.333,530.07 928,530L926,534L901,534L903,530C903,530 905.245,525.052 906,520L910,496C913.613,473.343 888.774,475.102 882,494L877,520C875.898,526.988 879.128,527.973 884,530L882,534L855,534Z" style="fill:rgb(210,175,183);"/>
            </g>
            <g transform="matrix(1,0,0,1,-477.369,168.753)">
                <path d="M982,628C982.924,615.129 967.442,614.912 968,624C969.965,655.984 1023.63,646.832 1025,620C1025.53,609.676 1017.08,605.409 1014,605C996.505,602.681 987.642,595.385 994,587C1002.42,575.891 1021.24,587.727 1020,596C1019.7,597.98 1025.51,596.962 1025.92,595.003C1028.54,582.448 1025.75,577.05 1006,577C977.215,576.928 967.115,613.499 999,618C1007.09,619.142 1011.19,620.691 1012,628C1013.28,639.576 980.695,646.19 982,628Z" style="fill:rgb(210,175,183);"/>
            </g>
            <g transform="matrix(1,0,0,1,-629.093,166.806)">
                <g transform="matrix(1,0,0,1,397.111,109.183)">
                    <path d="M823.384,475.38C807.902,475.353 791.754,515 816,529C823.141,533.123 834.167,527.833 838,524C840.833,521.167 841.297,509.173 833,512C827.61,513.836 823.67,505.724 835,502.41C858.268,495.605 858.167,534.997 820,537C798.765,538.114 785.431,529.077 786,510C786.464,494.433 802.294,471.053 824,470.821C852.885,470.513 850.433,488.312 849,492C846.771,497.74 833.553,498.533 834,491C834.192,487.772 837.208,475.404 823.384,475.38Z" style="fill:rgb(210,175,183);"/>
                </g>
                <g transform="matrix(1,0,0,1,396.756,110)">
                    <path d="M822.993,474C790.296,478.06 793.547,528.934 818.79,530C809.333,530.492 797.43,503.753 807.967,497.128C807.967,497.128 829.203,496.997 836,497C852.161,497.008 851.77,485.594 846.907,485C846.907,485 835.051,483.789 834.572,491.795C834.511,492.799 811,492 811,492C804.443,491.517 814.4,474.247 822.993,474Z" style="fill:rgb(210,175,183);"/>
                </g>
            </g>
        </g>
        <g transform="matrix(1,0,0,1,425.794,-237.498)">
            <g transform="matrix(1,0,0,1,-405.652,97.5582)">
                <path d="M848,534C845.502,528.185 857.183,532.05 860,523L867,492C868.112,484.399 866.192,478.922 859,480L860,476C867.526,475.752 874.056,474.797 878,472L885,472C883.55,476.793 884.704,482.354 886,480C891.426,470.147 930.848,464.078 927,484L921,524C920.566,527.54 918.333,530.07 928,530L926,534L892,534L895,530C903.754,527.672 905.245,525.052 906,520L910,496C913.613,473.343 888.774,475.102 882,494L877,520C875.898,526.988 879.128,527.973 884,530L882,534L848,534Z" style="fill:rgb(210,175,183);"/>
            </g>
            <g transform="matrix(1,0,0,1,-219.761,97.1517)">
                <path d="M823.384,475.38C807.902,475.353 790.56,516.239 815.752,528.455C822.513,531.734 842.363,522.663 829.983,518.407C824.598,516.555 820.653,512.131 831.983,508.817C855.25,502.011 852.987,536.814 815.983,536.817C794.718,536.819 784.96,527.894 785.529,508.817C785.993,493.25 802.294,471.053 824,470.821C852.885,470.513 850.433,488.312 849,492C846.771,497.74 833.553,498.533 834,491C834.192,487.772 837.208,475.404 823.384,475.38Z" style="fill:rgb(210,175,183);"/>
            </g>
            <g>
                <g transform="matrix(0.878,0.373538,-0.364796,0.857454,-89.5968,-294.775)">
                    <ellipse cx="969" cy="554" rx="9" ry="10" style="fill:rgb(210,175,183);"/>
                </g>
                <g transform="matrix(1,0,0,1,-405,-10.1437)">
                    <path d="M931,642L932,638C943.376,637.954 944,628 944,628C944,628 946.717,612.674 948,604C949.907,591.106 947.631,589.501 940,588L940,585C955.618,584.787 960.874,579.965 964,574.5C965.056,575.971 966.332,576.936 968,577L960,620C958.32,630.501 956.417,640.162 966,639L968,642L931,642Z" style="fill:rgb(210,175,183);"/>
                </g>
            </g>
            <g transform="matrix(1,0,0,1,-431.468,-9.98116)">
                <path d="M810,622C810.814,614.186 829.088,599.15 852,606C857.072,590.155 855.058,581.601 843.48,581.266C824.877,582.161 830.964,596.798 836,597C832.476,603.278 817.362,602.334 818,593C819.589,569.765 874.749,568.413 869,600L864.737,618.642C859.677,640.395 866.277,634.307 869,631C869.899,629.908 872,633 872,633C868.497,643.726 854.484,650.293 847,635C841.042,645.007 804.67,652.294 810,622ZM851.468,610.837C851.468,610.837 832.377,605.37 826.513,622.492C821.541,644.6 846.166,637.506 848.153,629.037C849.312,624.094 851.468,610.837 851.468,610.837Z" style="fill:rgb(210,175,183);"/>
            </g>
            <g transform="matrix(1,0,0,1,-433.563,-10.0313)">
                <path d="M739,578C743.271,590.431 727.881,593.999 720,594C690.553,594.002 692.679,543.95 728,544L800,544C840.618,544.144 817,599.993 792,600L772,600C765.343,600 763.192,601.451 762,608L759,628C758.162,634.801 761.786,638.167 770,638L769,642L722,642L722,638C731.982,638.469 736.928,631.022 738,624C738,624 746.983,579.741 748,568C748.66,560.38 751.996,552.91 744,552C710.337,548.168 702.099,573.401 716,580C724.68,584.121 729,577.263 729,574.5C729,571.737 737.026,569.463 739,578ZM792,552C784.888,552.001 773.674,549.212 772,560C769.722,574.675 769.586,572.576 768,586C767.379,591.258 780.867,591.178 786,588C803,577.476 803.497,551.998 792,552Z" style="fill:rgb(210,175,183);"/>
            </g>
        </g>
        <g transform="matrix(1,0,0,1,432.299,-236.801)">
            <g transform="matrix(1,0,0,1,-474.315,58.6854)">
                <path d="M874,642L876,638C882.39,638.211 885.417,634.262 887,626L890,604C891.455,594.642 888.503,591.924 883,592L884,589C893.652,588.393 900.6,584.382 906,576C906.886,577.862 908.569,578.504 911,578C909.146,580.856 907.5,586.667 908,588C908.5,589.333 912.266,587.549 914,586C922.07,573.843 934.429,579.877 934,587C933.165,600.872 920.521,597.942 917,594C913.669,590.271 908,594 906,604L904,626C904.029,630.848 903.146,636.257 912,640L912,642L874,642Z" style="fill:rgb(210,175,183);"/>
            </g>
            <g transform="matrix(1,0,0,1,-602.756,49.1126)">
                <path d="M1001.5,628.25C1007.74,645.583 981.521,652.701 965.5,651.429C941.479,649.522 939.787,629.647 941.5,620.25C943.113,611.402 944.543,608.797 946.5,600.25C949.774,585.953 948.257,587.325 939.5,586L939.899,582C956.445,581.983 960.77,577.344 963.5,572.75C965.801,574.589 968,574.75 968,574.75C968,574.75 964.215,587.221 965.5,588.25C984.028,584.809 996.83,591.753 991.5,606.5C990.569,609.077 984.719,609.654 985.5,607.25C987.162,602.136 973.624,589.99 965.5,595.25C961.912,597.574 960.635,610.485 960,618.914C958.461,639.347 968.658,648.149 989.209,636.964C993.478,634.64 989.828,631.683 988.433,630.966C985.861,629.643 981.205,630.36 980.5,628.25C978.009,620.797 997.092,616.397 1001.5,628.25Z" style="fill:rgb(210,175,183);"/>
            </g>
            <g transform="matrix(1,0,0,1,-655.547,56.5939)">
                <g transform="matrix(1,0,0,1,397.111,109.183)">
                    <path d="M823.384,475.38C807.902,475.353 791.754,515 816,529C823.141,533.123 834.167,527.833 838,524C840.833,521.167 841.297,509.173 833,512C827.61,513.836 823.67,505.724 835,502.41C858.268,495.605 858.167,534.997 820,537C798.765,538.114 785.431,529.077 786,510C786.464,494.433 802.294,471.053 824,470.821C852.885,470.513 850.433,488.312 849,492C846.771,497.74 833.553,498.533 834,491C834.192,487.772 837.208,475.404 823.384,475.38Z" style="fill:rgb(210,175,183);"/>
                </g>
                <g transform="matrix(1,0,0,1,396.756,110)">
                    <path d="M822.993,474C790.296,478.06 793.547,528.934 818.79,530C809.333,530.492 797.43,503.753 807.967,497.128C807.967,497.128 829.203,496.997 836,497C852.161,497.008 851.77,485.594 846.907,485C846.907,485 835.051,483.789 834.572,491.795C834.511,492.799 811,492 811,492C804.443,491.517 814.4,474.247 822.993,474Z" style="fill:rgb(210,175,183);"/>
                </g>
            </g>
            <g transform="matrix(1,0,0,1,-725.925,56.5023)">
                <g transform="matrix(1,0,0,1,397.111,109.183)">
                    <path d="M823.384,475.38C807.902,475.353 791.754,515 816,529C823.141,533.123 834.167,527.833 838,524C840.833,521.167 841.297,509.173 833,512C827.61,513.836 823.67,505.724 835,502.41C858.268,495.605 858.167,534.997 820,537C798.765,538.114 785.431,529.077 786,510C786.464,494.433 802.294,471.053 824,470.821C852.885,470.513 850.433,488.312 849,492C846.771,497.74 833.553,498.533 834,491C834.192,487.772 837.208,475.404 823.384,475.38Z" style="fill:rgb(210,175,183);"/>
                </g>
                <g transform="matrix(1,0,0,1,396.756,110)">
                    <path d="M822.993,474C790.296,478.06 793.547,528.934 818.79,530C809.333,530.492 797.43,503.753 807.967,497.128C807.967,497.128 829.203,496.997 836,497C852.161,497.008 851.77,485.594 846.907,485C846.907,485 835.051,483.789 834.572,491.795C834.511,492.799 811,492 811,492C804.443,491.517 814.4,474.247 822.993,474Z" style="fill:rgb(210,175,183);"/>
                </g>
            </g>
        </g>
    </g>
</svg>
