<?xml version="1.0" encoding="UTF-8" standalone="no"?>
<!DOCTYPE svg PUBLIC "-//W3C//DTD SVG 1.1//EN" "http://www.w3.org/Graphics/SVG/1.1/DTD/svg11.dtd">
<svg width="100%" height="100%" viewBox="0 0 199 58" version="1.1" xmlns="http://www.w3.org/2000/svg" xmlns:xlink="http://www.w3.org/1999/xlink" xml:space="preserve" xmlns:serif="http://www.serif.com/" style="fill-rule:evenodd;clip-rule:evenodd;stroke-linejoin:round;stroke-miterlimit:2;">
    <g transform="matrix(13.8604,0,0,13.8604,-9.14761,-22.0292)">
        <path d="M13.225,5.693C12.942,5.673 12.721,5.586 12.548,5.423C12.472,5.349 12.409,5.263 12.36,5.169C12.353,5.154 12.346,5.142 12.345,5.142C12.331,5.149 12.318,5.157 12.305,5.166L12.061,5.306C11.674,5.514 11.276,5.636 10.875,5.672C10.745,5.682 10.595,5.685 10.503,5.677C10.297,5.657 10.13,5.599 9.995,5.497C9.945,5.456 9.898,5.41 9.855,5.361C9.829,5.327 9.805,5.292 9.783,5.256L9.769,5.231L9.725,5.269C9.485,5.475 9.238,5.603 8.993,5.649C8.875,5.671 8.748,5.673 8.659,5.655C8.546,5.638 8.448,5.567 8.395,5.466C8.335,5.352 8.322,5.196 8.35,4.973C8.367,4.839 8.38,4.768 8.45,4.523C8.482,4.393 8.51,4.243 8.52,4.145C8.526,4.087 8.526,4.003 8.52,3.965C8.507,3.878 8.475,3.828 8.417,3.805C8.397,3.797 8.344,3.795 8.319,3.802C8.212,3.83 8.089,3.96 7.949,4.192C7.756,4.512 7.649,4.81 7.622,5.117C7.616,5.181 7.617,5.363 7.623,5.421C7.63,5.487 7.643,5.554 7.661,5.601L7.677,5.647C7.679,5.653 7.676,5.653 7.581,5.651C7.475,5.649 7.408,5.644 7.335,5.631C7.07,5.587 6.92,5.481 6.855,5.291C6.815,5.176 6.805,5.053 6.818,4.869C6.828,4.739 6.85,4.611 6.884,4.485C6.914,4.376 6.935,4.265 6.949,4.153C6.955,4.096 6.956,3.99 6.951,3.961C6.931,3.868 6.889,3.819 6.811,3.801C6.795,3.798 6.778,3.797 6.755,3.798C6.735,3.798 6.716,3.801 6.698,3.809C6.598,3.849 6.491,3.979 6.378,4.209C6.255,4.45 6.177,4.711 6.149,4.98C6.134,5.124 6.135,5.33 6.149,5.464C6.157,5.536 6.173,5.614 6.189,5.656C6.191,5.662 6.189,5.662 6.105,5.66C6.005,5.66 5.904,5.648 5.807,5.624C5.685,5.597 5.574,5.535 5.488,5.445C5.432,5.378 5.391,5.299 5.368,5.215C5.365,5.205 5.362,5.195 5.359,5.185C5.358,5.184 5.345,5.195 5.329,5.21C5.104,5.415 4.901,5.543 4.684,5.617C4.564,5.657 4.434,5.68 4.318,5.68C4.148,5.68 4.025,5.62 3.946,5.5C3.914,5.452 3.896,5.41 3.881,5.35C3.851,5.23 3.856,5.085 3.901,4.858L4.028,4.343L4.132,3.96C4.148,3.896 4.149,3.89 4.149,3.857C4.148,3.747 4.104,3.685 4.029,3.684C4.009,3.684 4.004,3.685 3.981,3.696C3.947,3.713 3.921,3.731 3.855,3.778L3.799,3.818L3.791,3.843C3.745,3.981 3.645,4.183 3.529,4.367C3.402,4.571 3.207,4.837 3.039,5.039C2.712,5.431 2.431,5.644 2.183,5.689C2.137,5.697 2.068,5.697 2.033,5.688C1.879,5.65 1.753,5.494 1.641,5.211C1.59,5.038 1.542,4.865 1.497,4.69C1.45,4.514 1.402,4.337 1.354,4.161C1.32,4.03 1.268,3.904 1.2,3.786C1.16,3.726 1.112,3.688 1.07,3.684C1.053,3.682 1.05,3.683 1.024,3.696C0.998,3.709 0.917,3.761 0.85,3.808L0.812,3.834C0.81,3.835 0.782,3.804 0.737,3.744C0.712,3.711 0.687,3.679 0.661,3.646C0.657,3.642 0.663,3.636 0.711,3.592C0.82,3.494 0.929,3.395 1.038,3.296C1.186,3.16 1.272,3.09 1.372,3.026C1.478,2.956 1.545,2.93 1.624,2.926C1.822,2.916 1.954,3.026 2.024,3.288C2.041,3.348 2.049,3.388 2.074,3.552L2.214,4.312C2.267,4.524 2.326,4.647 2.389,4.678C2.406,4.686 2.411,4.688 2.426,4.686C2.496,4.681 2.593,4.573 2.729,4.356C2.839,4.176 2.909,4.032 2.932,3.922C2.938,3.894 2.939,3.882 2.939,3.824C2.939,3.766 2.938,3.754 2.934,3.738C2.918,3.682 2.889,3.644 2.844,3.622C2.807,3.604 2.782,3.599 2.724,3.599C2.656,3.599 2.588,3.612 2.525,3.637C2.505,3.644 2.495,3.647 2.493,3.645C2.497,3.627 2.503,3.609 2.509,3.592C2.565,3.428 2.629,3.292 2.715,3.192C2.745,3.152 2.807,3.089 2.843,3.06C2.903,3.01 2.983,2.965 3.055,2.94C3.21,2.883 3.421,2.873 3.555,2.917C3.737,2.977 3.835,3.129 3.855,3.393L3.857,3.418L3.871,3.405L3.991,3.305C4.231,3.085 4.371,2.985 4.487,2.951C4.51,2.944 4.523,2.943 4.563,2.941C4.709,2.936 4.811,2.981 4.881,3.088C4.945,3.184 4.974,3.308 4.965,3.451C4.963,3.491 4.958,3.521 4.932,3.651L4.778,4.521C4.76,4.635 4.758,4.639 4.761,4.681C4.765,4.783 4.787,4.846 4.833,4.893C4.846,4.907 4.862,4.919 4.879,4.927C4.919,4.947 4.979,4.953 5.019,4.943C5.057,4.93 5.094,4.912 5.128,4.891C5.206,4.842 5.28,4.785 5.347,4.722C5.351,4.695 5.355,4.667 5.358,4.64L5.398,4.383L5.456,3.979L5.468,3.779C5.464,3.725 5.428,3.697 5.385,3.711C5.355,3.721 5.291,3.761 5.202,3.823C5.165,3.849 5.157,3.853 5.154,3.85L4.987,3.657C4.987,3.656 4.995,3.647 5.005,3.64L5.328,3.34L5.668,3.04C5.73,2.993 5.778,2.965 5.82,2.95C5.838,2.944 5.847,2.943 5.88,2.943C5.904,2.943 5.93,2.945 5.94,2.948C6.025,2.968 6.092,3.015 6.147,3.098C6.202,3.181 6.239,3.274 6.255,3.378C6.265,3.435 6.265,3.546 6.257,3.593L6.252,3.627C6.252,3.629 6.262,3.617 6.272,3.6C6.359,3.475 6.465,3.365 6.586,3.273C6.634,3.238 6.684,3.205 6.735,3.174C6.911,3.074 7.105,3.019 7.299,3.014C7.479,3.008 7.615,3.052 7.709,3.144C7.744,3.179 7.773,3.22 7.794,3.265C7.836,3.352 7.854,3.445 7.86,3.578L7.862,3.642L7.916,3.595C7.947,3.568 7.977,3.539 8.004,3.508C8.058,3.446 8.116,3.387 8.176,3.331C8.373,3.151 8.581,3.049 8.808,3.021C8.863,3.014 8.955,3.011 9.002,3.016C9.118,3.021 9.228,3.068 9.311,3.149C9.421,3.266 9.468,3.422 9.457,3.643C9.449,3.803 9.425,3.95 9.357,4.243C9.274,4.611 9.261,4.689 9.271,4.789C9.279,4.869 9.295,4.903 9.336,4.925C9.366,4.941 9.392,4.947 9.446,4.949C9.49,4.951 9.493,4.95 9.516,4.942C9.546,4.932 9.586,4.912 9.624,4.886C9.647,4.871 9.652,4.866 9.651,4.862C9.646,4.842 9.641,4.732 9.644,4.667C9.648,4.458 9.699,4.252 9.794,4.066C9.862,3.928 9.947,3.799 10.046,3.682C10.346,3.312 10.726,3.082 11.14,3.002C11.31,2.97 11.51,2.962 11.656,2.982C11.936,3.018 12.11,3.139 12.188,3.35C12.213,3.42 12.228,3.495 12.23,3.578C12.232,3.661 12.224,3.721 12.197,3.804C12.137,3.988 11.997,4.172 11.775,4.366C11.512,4.594 11.188,4.753 10.82,4.836L10.67,4.866C10.666,4.866 10.7,4.906 10.723,4.926C10.793,4.993 10.879,5.031 10.986,5.044C11.026,5.049 11.176,5.046 11.246,5.039C11.541,5.011 11.83,4.932 12.17,4.786L12.24,4.756L12.238,4.739C12.229,4.637 12.229,4.535 12.238,4.433C12.264,4.194 12.347,3.965 12.482,3.766C12.537,3.682 12.599,3.602 12.667,3.528C12.815,3.355 12.995,3.213 13.197,3.11C13.426,2.995 13.679,2.934 13.936,2.933C14.053,2.931 14.132,2.937 14.226,2.956C14.354,2.981 14.474,3.034 14.579,3.111C14.653,3.17 14.718,3.239 14.772,3.316C14.907,3.506 14.974,3.756 14.966,4.043C14.959,4.303 14.906,4.537 14.806,4.758C14.706,4.956 14.568,5.161 14.402,5.315C14.147,5.555 13.855,5.685 13.504,5.721C13.459,5.726 13.281,5.729 13.238,5.727L13.225,5.693ZM13.443,5.077C13.628,5.055 13.793,4.927 13.931,4.694C14.07,4.471 14.142,4.213 14.138,3.951C14.135,3.849 14.123,3.774 14.095,3.689C14.069,3.612 14.043,3.566 14.008,3.534C13.973,3.502 13.938,3.492 13.866,3.497C13.79,3.502 13.715,3.521 13.646,3.555C13.516,3.619 13.406,3.727 13.306,3.895C13.179,4.1 13.105,4.334 13.091,4.575C13.083,4.705 13.103,4.815 13.154,4.918C13.19,4.99 13.236,5.041 13.287,5.063C13.337,5.081 13.391,5.086 13.443,5.078L13.443,5.077ZM10.586,4.537C10.865,4.427 11.107,4.238 11.28,3.993C11.327,3.923 11.357,3.855 11.367,3.798C11.371,3.762 11.369,3.726 11.362,3.691C11.357,3.668 11.342,3.639 11.33,3.625C11.318,3.611 11.294,3.595 11.27,3.588C11.231,3.58 11.191,3.579 11.152,3.585C11.025,3.612 10.9,3.709 10.774,3.879C10.637,4.063 10.562,4.239 10.544,4.412C10.54,4.457 10.54,4.552 10.544,4.552C10.557,4.548 10.57,4.543 10.583,4.538L10.586,4.537ZM4.486,2.487C4.416,2.481 4.344,2.461 4.298,2.434C4.272,2.419 4.233,2.384 4.216,2.361C4.189,2.321 4.171,2.276 4.164,2.228C4.157,2.175 4.158,2.121 4.166,2.068C4.182,1.988 4.226,1.912 4.3,1.835C4.425,1.698 4.596,1.612 4.781,1.592C4.881,1.582 4.971,1.6 5.038,1.652C5.105,1.704 5.158,1.782 5.182,1.857C5.192,1.894 5.196,1.957 5.188,2.001C5.17,2.104 5.113,2.201 5.012,2.301C4.905,2.406 4.79,2.463 4.652,2.483C4.612,2.489 4.528,2.491 4.488,2.488L4.486,2.487Z" style="fill:white;fill-rule:nonzero;"/>
    </g>
</svg>
