<?xml version="1.0" encoding="UTF-8" standalone="no"?>
<!DOCTYPE svg PUBLIC "-//W3C//DTD SVG 1.1//EN" "http://www.w3.org/Graphics/SVG/1.1/DTD/svg11.dtd">
<svg width="100%" height="100%" viewBox="0 0 225 53" version="1.1" xmlns="http://www.w3.org/2000/svg" xmlns:xlink="http://www.w3.org/1999/xlink" xml:space="preserve" xmlns:serif="http://www.serif.com/" style="fill-rule:evenodd;clip-rule:evenodd;stroke-linejoin:round;stroke-miterlimit:2;">
    <g transform="matrix(2.4882,0,0,2.4882,4.01547,-1174.71)">
        <g>
            <g transform="matrix(1,0,0,1,-1.01096,472.716)">
                <path d="M27.973,3.123C27.644,1.893 26.677,0.927 25.447,0.597C23.22,0 14.285,0 14.285,0C14.285,0 5.35,0 3.123,0.597C1.893,0.927 0.927,1.893 0.597,3.123C0,5.35 0,10 0,10C0,10 0,14.65 0.597,16.877C0.927,18.107 1.893,19.073 3.123,19.403C5.35,20 14.285,20 14.285,20C14.285,20 23.22,20 25.447,19.403C26.677,19.073 27.644,18.107 27.973,16.877C28.57,14.65 28.57,10 28.57,10C28.57,10 28.568,5.35 27.973,3.123Z" style="fill:none;fill-rule:nonzero;stroke:white;stroke-width:1.21px;"/>
            </g>
            <g transform="matrix(1,0,0,1,-1.01096,472.716)">
                <path d="M11.425,14.285L18.848,10L11.425,5.715L11.425,14.285Z" style="fill:white;fill-rule:nonzero;"/>
            </g>
            <g transform="matrix(1,0,0,1,-1.01096,472.716)">
                <g id="youtube-paths">
                    <path d="M34.602,13.004L31.395,1.418L34.193,1.418L35.317,6.67C35.604,7.964 35.814,9.067 35.95,9.979L36.032,9.979C36.126,9.325 36.338,8.229 36.665,6.689L37.829,1.418L40.628,1.418L37.38,13.004L37.38,18.561L34.6,18.561L34.6,13.004L34.602,13.004Z" style="fill:white;fill-rule:nonzero;"/>
                    <path d="M41.47,18.194C40.905,17.813 40.503,17.22 40.263,16.416C40.026,15.611 39.906,14.544 39.906,13.208L39.906,11.39C39.906,10.042 40.042,8.958 40.315,8.142C40.588,7.326 41.014,6.729 41.592,6.355C42.171,5.981 42.93,5.792 43.871,5.792C44.798,5.792 45.538,5.983 46.098,6.364C46.656,6.745 47.065,7.342 47.323,8.151C47.582,8.963 47.712,10.042 47.712,11.39L47.712,13.208C47.712,14.544 47.585,15.616 47.333,16.425C47.081,17.237 46.672,17.829 46.108,18.203C45.543,18.577 44.776,18.765 43.81,18.765C42.813,18.767 42.034,18.575 41.47,18.194ZM44.635,16.232C44.791,15.823 44.871,15.158 44.871,14.231L44.871,10.329C44.871,9.431 44.793,8.772 44.635,8.358C44.478,7.942 44.203,7.735 43.807,7.735C43.426,7.735 43.156,7.942 43.001,8.358C42.843,8.775 42.766,9.431 42.766,10.329L42.766,14.231C42.766,15.158 42.841,15.825 42.991,16.232C43.142,16.642 43.412,16.846 43.807,16.846C44.203,16.846 44.478,16.642 44.635,16.232Z" style="fill:white;fill-rule:nonzero;"/>
                    <path d="M56.815,18.563L54.609,18.563L54.365,17.03L54.304,17.03C53.704,18.187 52.806,18.766 51.606,18.766C50.776,18.766 50.162,18.493 49.767,17.95C49.372,17.404 49.174,16.553 49.174,15.396L49.174,6.038L51.994,6.038L51.994,15.231C51.994,15.791 52.055,16.188 52.178,16.426C52.3,16.663 52.505,16.783 52.791,16.783C53.036,16.783 53.271,16.708 53.497,16.557C53.723,16.407 53.887,16.216 53.998,15.986L53.998,6.035L56.815,6.035L56.815,18.563Z" style="fill:white;fill-rule:nonzero;"/>
                    <path d="M64.475,3.688L61.677,3.688L61.677,18.563L58.918,18.563L58.918,3.688L56.119,3.688L56.119,1.42L64.475,1.42L64.475,3.688Z" style="fill:white;fill-rule:nonzero;"/>
                    <path d="M71.277,18.563L69.071,18.563L68.826,17.03L68.765,17.03C68.165,18.187 67.267,18.766 66.068,18.766C65.237,18.766 64.624,18.493 64.228,17.95C63.833,17.404 63.636,16.553 63.636,15.396L63.636,6.038L66.456,6.038L66.456,15.231C66.456,15.791 66.517,16.188 66.639,16.426C66.761,16.663 66.966,16.783 67.253,16.783C67.497,16.783 67.733,16.708 67.958,16.557C68.184,16.407 68.349,16.216 68.459,15.986L68.459,6.035L71.277,6.035L71.277,18.563Z" style="fill:white;fill-rule:nonzero;"/>
                    <path d="M80.609,8.039C80.437,7.248 80.162,6.677 79.781,6.322C79.4,5.967 78.876,5.79 78.208,5.79C77.69,5.79 77.206,5.936 76.757,6.23C76.308,6.524 75.959,6.907 75.715,7.385L75.694,7.385L75.694,0.786L72.977,0.786L72.977,18.561L75.306,18.561L75.593,17.376L75.654,17.376C75.872,17.799 76.199,18.13 76.634,18.377C77.07,18.622 77.554,18.744 78.086,18.744C79.038,18.744 79.741,18.305 80.19,17.427C80.64,16.548 80.865,15.177 80.865,13.309L80.865,11.327C80.865,9.927 80.778,8.829 80.609,8.039ZM78.024,13.149C78.024,14.062 77.987,14.777 77.911,15.294C77.836,15.812 77.712,16.181 77.533,16.397C77.356,16.616 77.117,16.724 76.818,16.724C76.585,16.724 76.371,16.67 76.173,16.559C75.976,16.451 75.816,16.287 75.694,16.07L75.694,8.961C75.788,8.62 75.952,8.342 76.185,8.123C76.416,7.905 76.67,7.796 76.94,7.796C77.227,7.796 77.448,7.909 77.603,8.133C77.761,8.359 77.869,8.735 77.93,9.266C77.991,9.798 78.022,10.553 78.022,11.534L78.022,13.149L78.024,13.149Z" style="fill:white;fill-rule:nonzero;"/>
                    <path d="M84.866,13.871C84.866,14.676 84.889,15.278 84.936,15.68C84.983,16.082 85.082,16.374 85.233,16.559C85.383,16.743 85.614,16.834 85.926,16.834C86.347,16.834 86.639,16.67 86.794,16.343C86.952,16.016 87.037,15.471 87.051,14.709L89.482,14.852C89.497,14.96 89.504,15.111 89.504,15.301C89.504,16.458 89.186,17.324 88.553,17.895C87.921,18.467 87.025,18.754 85.868,18.754C84.478,18.754 83.504,18.319 82.947,17.446C82.387,16.574 82.109,15.226 82.109,13.401L82.109,11.214C82.109,9.335 82.399,7.961 82.977,7.096C83.556,6.23 84.546,5.797 85.95,5.797C86.917,5.797 87.66,5.974 88.177,6.329C88.695,6.684 89.059,7.234 89.271,7.985C89.482,8.735 89.588,9.77 89.588,11.091L89.588,13.236L84.866,13.236L84.866,13.871ZM85.223,7.968C85.08,8.144 84.986,8.434 84.936,8.836C84.889,9.238 84.866,9.847 84.866,10.666L84.866,11.564L86.928,11.564L86.928,10.666C86.928,9.861 86.9,9.252 86.846,8.836C86.792,8.42 86.693,8.128 86.55,7.956C86.406,7.787 86.185,7.7 85.886,7.7C85.585,7.702 85.364,7.792 85.223,7.968Z" style="fill:white;fill-rule:nonzero;"/>
                </g>
            </g>
        </g>
    </g>
</svg>
